<svg width="94" height="94" fill="none" xmlns="http://www.w3.org/2000/svg"><g filter="url(#filter0_dd)"><path d="M74.36 11.148C67.01 4.829 57.455 1 47 1 23.803 1 5 19.804 5 43c0 10.455 3.828 20.009 10.148 27.36" stroke="#70CF29" stroke-miterlimit="10"/><path d="M19.373 74.621C26.759 81.078 36.418 85 47 85c23.196 0 42-18.804 42-42 0-10.581-3.922-20.241-10.379-27.626" stroke="#3FA9F5" stroke-miterlimit="10"/><path d="M69.414 41l-5-5h-3l-5-5H40V20h-6v11h-6v5h-3v5h-5.337l5.59 19H67.67l7.823-19h-6.079zM36 22h2v9h-2v-9zm-6 11h25.586l3 3H30v-3zm-3 5h36.586l3 3H27v-3zm39.33 20H26.748l-4.411-15h50.17L66.33 58z" fill="#3FA9F5"/><path d="M34 46.5c-2.206 0-4 1.794-4 4s1.794 4 4 4 4-1.794 4-4-1.794-4-4-4zm0 6c-1.103 0-2-.897-2-2s.897-2 2-2 2 .897 2 2-.897 2-2 2zM47 46.5c-2.206 0-4 1.794-4 4s1.794 4 4 4 4-1.794 4-4-1.794-4-4-4zm0 6c-1.103 0-2-.897-2-2s.897-2 2-2 2 .897 2 2-.897 2-2 2zM60 46.5c-2.206 0-4 1.794-4 4s1.794 4 4 4 4-1.794 4-4-1.794-4-4-4zm0 6c-1.103 0-2-.897-2-2s.897-2 2-2 2 .897 2 2-.897 2-2 2z" fill="#3FA9F5"/></g><defs><filter id="filter0_dd" x=".5" y=".5" width="93" height="93" filterUnits="userSpaceOnUse" color-interpolation-filters="sRGB"><feFlood flood-opacity="0" result="BackgroundImageFix"/><feColorMatrix in="SourceAlpha" values="0 0 0 0 0 0 0 0 0 0 0 0 0 0 0 0 0 0 127 0"/><feOffset dy="4"/><feGaussianBlur stdDeviation="2"/><feColorMatrix values="0 0 0 0 0 0 0 0 0 0 0 0 0 0 0 0 0 0 0.25 0"/><feBlend in2="BackgroundImageFix" result="effect1_dropShadow"/><feColorMatrix in="SourceAlpha" values="0 0 0 0 0 0 0 0 0 0 0 0 0 0 0 0 0 0 127 0"/><feOffset dy="4"/><feGaussianBlur stdDeviation="2"/><feColorMatrix values="0 0 0 0 0 0 0 0 0 0 0 0 0 0 0 0 0 0 0.25 0"/><feBlend in2="effect1_dropShadow" result="effect2_dropShadow"/><feBlend in="SourceGraphic" in2="effect2_dropShadow" result="shape"/></filter></defs></svg>